<svg version="1.2" xmlns="http://www.w3.org/2000/svg" viewBox="0 0 5333 3000" width="1000" height="563">
	<title>image</title>
	<style>
		.s0 { opacity: .7;fill: #000000 } 
		.s1 { fill: #00ffff } 
		.s2 { fill: #205959 } 
	</style>
	<path id="Layer 1" class="s0" d="m2055.9 2021.7c-726.5-121.9-1258.2-551.2-1189.6-960.5 68.7-409.3 711.4-641.7 1437.8-519.9 726.5 121.9 1258.2 551.2 1189.6 960.5-68.7 409.3-711.4 641.7-1437.8 519.9z"/>
	<path id="Thred" class="s1" aria-label="Thred"  d="m1352.6 952.8h76.4v249.2h36.4v-249.2h76v-29.6h-188.8zm233.6 249.2h36.4v-121.2c0-47.2 25.6-70.4 62.8-70.4 36.8 0 61.2 22.8 61.2 67.6v124h36v-129.2c0-62.8-38.8-94-87.6-94-30.8 0-58 12.4-72.4 35.6v-108.4h-36.4zm292.4-119.2c0-50.8 26.4-66.4 61.2-66.4h9.6v-37.6c-34.8 0-58.4 15.2-70.8 39.6v-35.6h-36.4v219.2h36.4zm206-72.8c37.6 0 69.6 23.6 69.2 66.4h-138.4c4-42.8 33.6-66.4 69.2-66.4zm102.4 124.4h-39.2c-8 23.6-28.8 40.4-61.6 40.4-37.2 0-68.4-24.4-71.2-68.8h175.2c0.8-7.6 1.2-14 1.2-22 0-60-41.6-104.8-105.2-104.8-64 0-108.4 43.6-108.4 112.8 0 69.6 46 113.6 108.4 113.6 54.4 0 89.6-31.2 100.8-71.2zm38.8-42.8c0 68 45.2 114 104 114 40 0 68.4-20.4 81.6-44.8v41.2h36.8v-296h-36.8v116c-15.2-25.2-46.8-42.8-81.2-42.8-59.2 0-104.4 44-104.4 112.4zm185.6 0.4c0 51.6-34.4 81.6-74.4 81.6-40 0-74-30.4-74-82 0-51.6 34-80.8 74-80.8 40 0 74.4 30.4 74.4 81.2z"/>
	<path id="List" class="s2" aria-label="List"  d="m2442.8 1276.2v278.8h134v-29.6h-97.6v-249.2zm172.8 278.8h36.4v-219.2h-36.4zm18.8-254.8c13.2 0 24-10.8 24-24.8 0-14-10.8-24.8-24-24.8-14 0-24.8 10.8-24.8 24.8 0 14 10.8 24.8 24.8 24.8zm237.2 195.2c-1.6-78.4-128.8-50-128.8-102 0-17.6 16-30.4 42.8-30.4 29.2 0 46 16 47.6 38h36.4c-2.4-42.8-34.4-68.8-82.8-68.8-48.8 0-80.4 27.6-80.4 61.2 0 81.6 129.6 53.2 129.6 102 0 18-16 32.4-44.8 32.4-30.8 0-49.6-16-51.6-37.2h-37.6c2.4 40 38.4 68 89.6 68 48.4 0 80-27.2 80-63.2zm59.2-0.4c0 44 22 60 60.8 60h32.8v-30.8h-26.8c-22.4 0-30.4-7.6-30.4-29.2v-129.2h57.2v-30h-57.2v-55.2h-36.4v55.2h-28.4v30h28.4z"/>
</svg>